<svg xmlns="http://www.w3.org/2000/svg" width="1600" height="1600" fill="none" viewBox="0 0 1600 1600">
  <g clip-path="url(#a)">
    <path fill="#D5DFD4" d="M1600 0H0v1600h1600V0Z"/>
    <path fill="#04050A" d="M457.926 1332.39c1.128 1.04 1.692 2.27 1.692 3.74 0 .79-.178 1.61-.544 2.46l-22.535 52.74c-.544 1.15-1.306 2.03-2.285 2.64-.969.61-2.008.91-3.106.91a5.785 5.785 0 0 1-2.879-.96c-.88-.58-1.563-1.42-2.057-2.51l-22.535-52.93c-.306-.6-.455-1.36-.455-2.28 0-1.64.604-2.97 1.83-3.97 1.217-1 2.463-1.5 3.74-1.5 1.038 0 2.008.3 2.918.91.91.61 1.612 1.49 2.097 2.65l18.34 43.16 16.787-43.16c.485-1.1 1.187-1.95 2.097-2.55.91-.61 1.89-.91 2.919-.91 1.523 0 2.839.51 3.966 1.55l.01.01Zm58.721 57.57c0 1.58-.515 2.88-1.553 3.88-1.039 1-2.226 1.5-3.562 1.5a4.77 4.77 0 0 1-2.967-1c-.881-.67-1.563-1.58-2.058-2.74l-4.748-11.04h-27.194l-4.748 11.13c-.426 1.16-1.079 2.05-1.959 2.69-.88.65-1.84.96-2.879.96-1.582 0-2.779-.42-3.6-1.27-.821-.85-1.237-2.01-1.237-3.48 0-.54.089-1.12.277-1.73l22.723-54.56c.484-1.22 1.216-2.16 2.186-2.83.969-.67 2.067-.94 3.284-.82 1.098 0 2.117.31 3.057.96.939.64 1.622 1.53 2.057 2.69l22.446 53.47c.306.79.455 1.52.455 2.18l.02.01Zm-37.601-19.89h18.251l-9.219-21.35-9.032 21.35Zm97.36-37.59c.91.97 1.365 2.18 1.365 3.65v53.2c0 1.58-.534 2.91-1.593 3.97-1.068 1.06-2.384 1.59-3.967 1.59-.85 0-1.691-.14-2.512-.42-.821-.27-1.415-.65-1.781-1.13l-33.485-42.52v38.96c0 1.47-.475 2.68-1.415 3.65-.939.97-2.176 1.47-3.699 1.47-1.524 0-2.642-.49-3.562-1.47-.91-.97-1.365-2.18-1.365-3.65v-53.19c0-1.58.534-2.91 1.593-3.96 1.068-1.07 2.384-1.6 3.967-1.6.91 0 1.81.19 2.69.55.881.36 1.534.85 1.959 1.46l33.208 42.34v-39.23c0-1.47.475-2.67 1.415-3.65.94-.97 2.146-1.47 3.601-1.47 1.454 0 2.641.49 3.561 1.47l.02-.02Zm49.451 61.68c-3.403-1.1-6.598-2.95-9.576-5.57-1.642-1.47-2.463-3.07-2.463-4.84 0-1.4.514-2.63 1.553-3.7 1.029-1.07 2.285-1.59 3.739-1.59 1.158 0 2.187.36 3.107 1.1 2.433 2 4.807 3.47 7.112 4.38 2.315.91 5.045 1.36 8.211 1.36 3.403 0 6.341-.76 8.804-2.28 2.463-1.53 3.699-3.41 3.699-5.66 0-2.74-1.216-4.88-3.65-6.43-2.433-1.55-6.291-2.72-11.584-3.51-13.324-1.95-19.982-8.15-19.982-18.62 0-3.83.999-7.16 3.007-9.99s4.749-4.99 8.211-6.48c3.472-1.49 7.33-2.24 11.584-2.24 3.828 0 7.439.58 10.812 1.74 3.373 1.15 6.192 2.68 8.438 4.56 1.761 1.4 2.641 3 2.641 4.83 0 1.41-.514 2.63-1.553 3.7-1.039 1.07-2.255 1.6-3.65 1.6-.91 0-1.731-.28-2.463-.83-1.583-1.27-3.789-2.44-6.618-3.51-2.829-1.07-5.372-1.59-7.617-1.59-3.828 0-6.796.71-8.893 2.15-2.097 1.43-3.146 3.3-3.146 5.61 0 2.61 1.078 4.59 3.235 5.93 2.156 1.34 5.549 2.43 10.169 3.28 5.233.91 9.417 2.09 12.543 3.52 3.136 1.43 5.49 3.37 7.073 5.83 1.583 2.47 2.374 5.74 2.374 9.82 0 3.82-1.078 7.19-3.234 10.08-2.157 2.88-5.036 5.11-8.626 6.65-3.591 1.56-7.449 2.33-11.584 2.33-4.383 0-8.27-.55-11.683-1.64l.01.01Zm95.994-61.59c1.039 1.04 1.553 2.37 1.553 4.01v52.74c0 1.58-.544 2.91-1.642 3.97-1.098 1.06-2.493 1.59-4.194 1.59-1.524 0-2.829-.54-3.927-1.59-1.098-1.07-1.642-2.39-1.642-3.97v-21.26h-29.103v21.26c0 1.58-.574 2.91-1.732 3.97-1.157 1.06-2.492 1.59-4.016 1.59-1.642 0-2.997-.54-4.056-1.59-1.068-1.07-1.592-2.39-1.592-3.97v-52.74c0-1.58.544-2.91 1.642-3.96 1.098-1.07 2.493-1.6 4.194-1.6 1.524 0 2.829.54 3.927 1.6 1.098 1.06 1.642 2.38 1.642 3.96v20.98h29.103v-20.98c0-1.58.574-2.91 1.732-3.96 1.157-1.07 2.492-1.6 4.016-1.6 1.701 0 3.066.52 4.105 1.56l-.01-.01Zm65.784 57.39c0 1.58-.515 2.88-1.553 3.88-1.039 1-2.226 1.5-3.562 1.5a4.77 4.77 0 0 1-2.967-1c-.881-.67-1.563-1.58-2.058-2.74l-4.748-11.04h-27.194l-4.748 11.13c-.426 1.16-1.078 2.05-1.959 2.69-.88.65-1.84.96-2.879.96-1.582 0-2.779-.42-3.6-1.27-.821-.85-1.237-2.01-1.237-3.48 0-.54.089-1.12.277-1.73l22.723-54.56c.484-1.22 1.216-2.16 2.186-2.83.969-.67 2.067-.94 3.284-.82 1.098 0 2.117.31 3.057.96.939.64 1.622 1.53 2.057 2.69l22.446 53.47c.306.79.455 1.52.455 2.18l.02.01Zm-37.591-19.89h18.251l-9.219-21.35-9.032 21.35Zm97.31 17.79c.455.8.683 1.62.683 2.47 0 1.1-.366 2.09-1.098 3.01-.91 1.09-2.315 1.64-4.195 1.64-1.464 0-2.799-.34-4.016-1-4.382-2.49-6.568-7.57-6.568-15.24 0-2.18-.713-3.92-2.147-5.2-1.425-1.28-3.482-1.92-6.163-1.92h-17.064v17.71c0 1.64-.445 2.98-1.326 4.01-.88 1.04-2.057 1.56-3.511 1.56-1.771 0-3.304-.54-4.61-1.59-1.306-1.07-1.959-2.39-1.959-3.97v-52.74c0-1.58.534-2.91 1.593-3.96 1.068-1.07 2.384-1.6 3.967-1.6h26.283c3.166 0 6.143.85 8.943 2.56 2.799 1.7 5.035 4.04 6.707 7.02 1.672 2.98 2.512 6.33 2.512 10.04 0 3.05-.821 6-2.463 8.89-1.642 2.89-3.769 5.19-6.39 6.89 3.828 2.68 5.935 6.26 6.291 10.76.188.97.277 1.92.277 2.83.238 1.89.485 3.23.732 4.06.248.82.792 1.44 1.642 1.87a5.29 5.29 0 0 1 1.87 1.91l.01-.01Zm-17.381-27.19c1.039-1.04 1.89-2.41 2.553-4.15.662-1.74.999-3.6.999-5.61 0-1.7-.337-3.27-.999-4.7-.673-1.43-1.524-2.57-2.553-3.42-1.038-.86-2.097-1.28-3.195-1.28h-19.982v20.71h19.982c1.098 0 2.157-.51 3.195-1.55Zm37.769 32.62c-1.157 1.06-2.493 1.59-4.016 1.59-1.642 0-2.998-.54-4.056-1.59-1.068-1.07-1.593-2.39-1.593-3.97v-52.74c0-1.58.544-2.91 1.642-3.96 1.098-1.07 2.493-1.6 4.195-1.6 1.523 0 2.829.54 3.927 1.6 1.098 1.06 1.642 2.38 1.642 3.96v52.74c0 1.58-.574 2.91-1.731 3.97h-.01Zm67.435-60.81c.91.97 1.365 2.18 1.365 3.65v53.2c0 1.58-.534 2.91-1.592 3.97-1.069 1.06-2.384 1.59-3.967 1.59a7.75 7.75 0 0 1-2.513-.42c-.821-.27-1.414-.65-1.78-1.13l-33.485-42.52v38.96c0 1.47-.475 2.68-1.415 3.65-.94.97-2.176 1.47-3.7 1.47-1.523 0-2.651-.49-3.561-1.47-.91-.97-1.365-2.18-1.365-3.65v-53.19c0-1.58.534-2.91 1.593-3.96 1.058-1.06 2.384-1.6 3.966-1.6.911 0 1.811.19 2.691.55.881.36 1.533.85 1.959 1.46l33.208 42.34v-39.23c0-1.47.475-2.67 1.415-3.65.939-.97 2.146-1.47 3.6-1.47 1.455 0 2.642.49 3.562 1.47l.019-.02Zm66.063 29.52c1.04 1.06 1.55 2.38 1.55 3.96v19.34c0 2.13-.94 3.77-2.828 4.93-5.965 3.71-12.504 5.57-19.617 5.57-6.024 0-11.583-1.48-16.698-4.42-5.104-2.95-9.16-6.94-12.138-11.95-2.977-5.02-4.471-10.51-4.471-16.47 0-5.97 1.494-11.46 4.471-16.47 2.978-5.02 7.024-9.01 12.138-11.95 5.115-2.95 10.674-4.43 16.698-4.43 6.025 0 11.248 1.22 15.689 3.65.911.49 1.593 1.13 2.058 1.92.455.79.683 1.65.683 2.56 0 1.52-.505 2.84-1.504 3.96-.999 1.13-2.236 1.69-3.7 1.69-.91 0-1.919-.24-3.007-.73-3.284-1.39-6.687-2.1-10.219-2.1-3.897 0-7.478.99-10.762 2.97-3.285 1.98-5.886 4.64-7.805 7.99-1.919 3.34-2.879 6.99-2.879 10.95 0 3.95.96 7.6 2.879 10.95 1.919 3.34 4.52 6 7.805 7.98 3.284 1.98 6.875 2.97 10.762 2.97 1.702 0 3.532-.15 5.471-.46 1.948-.3 3.65-.7 5.114-1.18v-11.87h-8.577c-1.582 0-2.908-.51-3.966-1.55-1.069-1.03-1.593-2.34-1.593-3.93 0-1.58.534-2.88 1.593-3.92 1.068-1.03 2.384-1.56 3.966-1.56h14.967c1.583 0 2.89.54 3.93 1.6h-.01Zm88.59 27.96c0 1.58-.51 2.88-1.55 3.88s-2.22 1.5-3.56 1.5c-1.1 0-2.09-.33-2.97-1-.88-.67-1.56-1.58-2.05-2.74l-4.75-11.04h-27.19l-4.75 11.13c-.42 1.16-1.08 2.05-1.96 2.69-.88.65-1.84.96-2.87.96-1.59 0-2.78-.42-3.61-1.27-.82-.85-1.23-2.01-1.23-3.48 0-.54.09-1.12.28-1.73l22.72-54.56c.48-1.22 1.21-2.16 2.18-2.83.97-.67 2.07-.94 3.29-.82 1.1 0 2.11.31 3.05.96.94.64 1.64 1.53 2.06 2.69l22.45 53.47c.3.79.45 1.52.45 2.18l.01.01Zm-37.59-19.89h18.25l-9.22-21.35-9.03 21.35Zm80.56-36.27c2.8 1.86 5.05 4.36 6.76 7.48 1.7 3.14 2.55 6.56 2.55 10.27s-.85 7.05-2.55 10.22c-1.7 3.16-3.96 5.67-6.76 7.53-2.79 1.86-5.74 2.78-8.85 2.78h-15.88v17.24c0 1.64-.48 2.98-1.46 4.02-.97 1.03-2.26 1.55-3.83 1.55-1.57 0-2.77-.54-3.74-1.59-.97-1.07-1.46-2.39-1.46-3.97v-52.74c0-1.58.53-2.91 1.59-3.96 1.06-1.06 2.38-1.6 3.97-1.6h20.8c3.11 0 6.06.93 8.85 2.78l.01-.01Zm-5.42 26.42c1.13-.97 2.04-2.24 2.74-3.79.71-1.56 1.05-3.18 1.05-4.88 0-1.7-.35-3.33-1.05-4.88-.7-1.55-1.61-2.8-2.74-3.74-1.12-.94-2.26-1.41-3.42-1.41h-15.88v20.16h15.88c1.16 0 2.3-.48 3.42-1.46Zm60.45-26.42c2.79 1.86 5.04 4.36 6.75 7.48 1.7 3.14 2.55 6.56 2.55 10.27s-.85 7.05-2.55 10.22c-1.7 3.16-3.96 5.67-6.75 7.53-2.8 1.86-5.75 2.78-8.86 2.78h-15.88v17.24c0 1.64-.48 2.98-1.46 4.02-.97 1.03-2.25 1.55-3.83 1.55-1.57 0-2.77-.54-3.74-1.59-.97-1.07-1.46-2.39-1.46-3.97v-52.74c0-1.58.53-2.91 1.59-3.96 1.06-1.06 2.39-1.6 3.97-1.6h20.8c3.11 0 6.06.93 8.86 2.78l.01-.01Zm-5.43 26.42c1.13-.97 2.04-2.24 2.74-3.79.71-1.56 1.05-3.18 1.05-4.88 0-1.7-.35-3.33-1.05-4.88-.7-1.55-1.61-2.8-2.74-3.74-1.12-.94-2.26-1.41-3.42-1.41h-15.88v20.16h15.88c1.16 0 2.3-.48 3.42-1.46ZM132.6 1171.57l40.459-123.72c4.679-14.37 9.359-20.4 19.726-20.4 12.038 0 18.726 7.02 18.726 20.4 0 5.35-1.672 9.69-2.345 11.36l-53.171 161.84c-6.687 20.06-11.366 29.43-23.068 29.43-12.376 0-18.39-13.37-23.405-28.08L53.68 1062.57c-2.008-5.69-3.68-10.71-3.68-18.05 0-9.04 8.695-17.06 17.39-17.06 13.375 0 15.72 6.69 22.07 24.41l43.13 119.71.01-.01Zm418.303-7.35v-109.34c0-17.39 3.68-27.42 18.39-27.42 15.719 0 19.063 10.37 19.063 27.42v170.53c0 16.39-5.689 25.08-15.383 25.08-13.711 0-17.054-6.69-24.078-17.05l-80.582-120.05v109.01c0 18.39-5.688 28.08-17.39 28.08-13.038 0-20.062-9.03-20.062-25.08v-172.54c0-16.38 7.36-25.41 18.726-25.41 8.359 0 13.374 5.35 19.063 13.71l82.253 123.05v.01Zm140.431-7.36c-41.459 0-65.2-26.08-65.2-64.2 0-32.77 31.428-65.54 77.911-65.54 46.484 0 78.574 27.43 78.574 44.48 0 10.7-7.023 18.05-17.054 18.05-2.344 0-4.016-.33-6.014-1.67-19.063-12.04-35.781-24.08-55.506-24.08s-39.124 10.71-39.124 27.76c0 19.73 14.374 28.09 26.413 28.09h21.07c19.725 0 35.444 1.33 50.827 13.71 14.047 11.36 22.405 29.09 22.405 49.15 0 40.8-32.436 68.54-72.559 68.54s-83.59-21.73-83.59-46.48c0-11.03 10.368-17.72 15.047-17.72 3.007 0 9.694 3.35 15.382 7.36 12.039 8.36 22.07 18.73 53.161 18.73 14.047 0 35.107-9.03 35.107-28.76 0-19.72-11.702-27.42-35.107-27.42h-21.743Zm205.303-130.07c43.467 0 76.903 30.43 76.903 49.82 0 9.69-7.024 16.71-16.718 16.71-6.351 0-10.704-5.01-15.046-9.35-13.038-13.38-27.085-19.07-45.811-19.07-25.414 0-42.131 19.39-42.131 56.18 0 33.1 1.335 55.51 5.351 65.87 6.015 16.38 19.399 26.09 39.46 26.09 24.078 0 37.116-14.05 45.475-20.4 4.016-3.01 8.695-5.69 14.047-5.69 9.358 0 16.382 8.7 16.382 17.72 0 21.4-41.459 46.48-76.903 46.48s-65.199-20.73-75.23-49.49c-5.352-15.72-6.015-43.46-6.015-83.26 0-33.1 5.352-53.5 26.413-71.89 15.718-13.71 32.436-19.72 53.833-19.72h-.01Zm348.753 132.08v64.54c0 17.39-5.02 27.08-19.06 27.08-15.39 0-18.39-11.36-18.39-27.08V1052.2c0-16.72 6.01-25.08 23.74-25.08h61.85c47.82 0 73.56 29.43 73.56 66.55 0 39.46-26.41 65.2-70.21 65.2h-51.5.01Zm0-93.29v54.83h50.49c23.07 0 32.43-9.7 32.43-29.09 0-17.4-11.36-25.75-33.77-25.75h-49.15v.01Zm183.57 146.45h91.28c18.73 0 27.09 8.36 27.09 19.4 0 14.37-10.03 19.06-27.09 19.06h-108c-14.71 0-20.73-8.36-20.73-26.08V1052.2c0-16.05 5.68-24.41 22.07-24.41h113.35c15.38 0 23.07 8.02 23.07 19.39 0 11.36-9.03 19.06-19.73 19.06h-101.31v54.5h62.86c16.39 0 25.75 5.02 25.75 19.4 0 13.04-8.69 19.07-25.75 19.07h-62.86v52.83-.01Zm-1060.786-17.91-51.885-120.18c4.373-5 7.024-11.54 7.024-18.7 0-15.71-12.732-28.44-28.441-28.44-15.708 0-28.44 12.73-28.44 28.44 0 7.48 2.889 14.28 7.617 19.36l-48.996 119.69c-12.711 2.84-22.228 14.19-22.228 27.75 0 15.71 12.732 28.44 28.44 28.44 15.709 0 28.441-12.73 28.441-28.44 0-5.89-1.791-11.37-4.867-15.91l7.29-16.04 12.098-30.52 21.447-52.51 22.821 52.51 12.642 30.52 7.726 16.63a28.23 28.23 0 0 0-4.481 15.32c0 15.71 12.731 28.44 28.44 28.44 15.709 0 28.44-12.73 28.44-28.44 0-13.88-9.941-25.43-23.098-27.93l.01.01Zm793.276 0-51.88-120.18c4.37-5 7.02-11.54 7.02-18.7 0-15.71-12.73-28.44-28.44-28.44s-28.44 12.73-28.44 28.44c0 7.48 2.89 14.28 7.62 19.36l-49 119.69c-12.71 2.84-22.226 14.19-22.226 27.75 0 15.71 12.736 28.44 28.436 28.44 15.71 0 28.44-12.73 28.44-28.44 0-5.89-1.79-11.37-4.86-15.91l7.29-16.04 12.1-30.52 21.44-52.51 22.82 52.51 12.65 30.52 7.72 16.63a28.22 28.22 0 0 0-4.48 15.32c0 15.71 12.73 28.44 28.44 28.44s28.44-12.73 28.44-28.44c0-13.88-9.94-25.43-23.1-27.93l.01.01Zm203.87-295.447h-268.45c-7.16 0-12.95-5.796-12.95-12.948 0-7.153 5.79-12.949 12.95-12.949h268.45c7.15 0 12.95 5.796 12.95 12.949 0 7.152-5.8 12.948-12.95 12.948Zm-922.974 0H235.945c-7.153 0-12.949-5.796-12.949-12.948 0-7.153 5.796-12.949 12.949-12.949h206.401c7.152 0 12.949 5.796 12.949 12.949 0 7.152-5.797 12.948-12.949 12.948Zm531.006 34.762c-45.811 0-83.085-37.274-83.085-83.085 0-45.811 37.274-83.085 83.085-83.085 45.808 0 83.088 37.274 83.088 83.085 0 45.811-37.28 83.085-83.088 83.085Zm0-140.272c-31.536 0-57.187 25.65-57.187 57.187 0 31.536 25.651 57.187 57.187 57.187 31.538 0 57.188-25.651 57.188-57.187 0-31.537-25.65-57.187-57.188-57.187ZM565.545 933.435c-45.811 0-83.085-37.274-83.085-83.085 0-45.811 37.274-83.085 83.085-83.085 45.811 0 83.084 37.274 83.084 83.085 0 45.811-37.273 83.085-83.084 83.085Zm0-140.272c-31.537 0-57.187 25.65-57.187 57.187 0 31.536 25.65 57.187 57.187 57.187 31.536 0 57.187-25.651 57.187-57.187 0-31.537-25.651-57.187-57.187-57.187Zm407.807 82.333c-13.869 0-25.146-11.277-25.146-25.146 0-13.869 11.277-25.146 25.146-25.146 13.869 0 25.146 11.277 25.146 25.146 0 13.869-11.277 25.146-25.146 25.146Zm0-25.898a.752.752 0 1 0 0 1.504.752.752 0 0 0 0-1.504Zm-407.807 25.898c-13.869 0-25.147-11.277-25.147-25.146 0-13.869 11.278-25.146 25.147-25.146 13.868 0 25.146 11.277 25.146 25.146 0 13.869-11.278 25.146-25.146 25.146Zm0-25.898a.751.751 0 1 0-.002 1.502.751.751 0 0 0 .002-1.502Zm582.545 1.504h-69.08c-7.15 0-12.95-5.797-12.95-12.949s5.8-12.949 12.95-12.949h69.08c6.73 0 12.2-5.471 12.2-12.197 0-6.727-5.47-12.197-12.2-12.197h-7.59c-7.15 0-12.95-5.797-12.95-12.949v-66.15c0-45.039-8.6-89.01-25.58-130.706l-19.43-36.868c-8.13-15.442-18.33-29.37-30.44-41.627H448.005c-10.199 11.663-18.419 25.008-24.375 39.668-13.938 34.326-21.001 70.522-21.001 107.578V788.85c0 7.152-5.797 12.949-12.949 12.949h-3.769c-4.451 0-8.072 3.62-8.072 8.072a8.053 8.053 0 0 0 2.849 6.153 38.548 38.548 0 0 0 24.949 9.17h46.542c7.153 0 12.949 5.797 12.949 12.949s-5.796 12.949-12.949 12.949h-46.542a64.498 64.498 0 0 1-41.726-15.343 33.92 33.92 0 0 1-11.97-25.888c0-15.551 10.506-28.697 24.8-32.714V659.746c0-40.41 7.706-79.88 22.901-117.312 13.275-32.704 36.106-59.868 66.031-78.574a132.975 132.975 0 0 1 70.551-20.23h419.114c18.479 0 36.611 3.314 53.892 9.843a159.664 159.664 0 0 1 41.72 23.435c22.73 17.727 41.07 39.648 54.51 65.16l19.73 37.422c.2.367.37.752.53 1.138 18.41 45 27.75 92.473 27.75 141.093v53.577c18.48 2.611 32.73 18.538 32.73 37.719 0 21.001-17.09 38.095-38.09 38.095l-.02-.01Zm-669.933-364.48h540.863a133.254 133.254 0 0 0-18.95-8.913 126.161 126.161 0 0 0-44.742-8.171H536.214a107.053 107.053 0 0 0-56.821 16.303c-.415.257-.831.524-1.236.781Zm385.629 364.48H674.339c-7.152 0-12.949-5.797-12.949-12.949s5.797-12.949 12.949-12.949h189.447c7.152 0 12.949 5.797 12.949 12.949s-5.797 12.949-12.949 12.949ZM652.517 746.264H463.071c-7.152 0-12.949-5.797-12.949-12.949s5.797-12.949 12.949-12.949h189.446c7.152 0 12.949 5.797 12.949 12.949s-5.797 12.949-12.949 12.949Zm287.924-51.242h-7.558c-7.152 0-12.949-5.797-12.949-12.949s5.797-12.949 12.949-12.949h7.558c7.152 0 12.949 5.797 12.949 12.949s-5.797 12.949-12.949 12.949Zm112.219-70.532H936.662c-7.152 0-12.949-5.797-12.949-12.949v-61.717c0-7.152 5.797-12.949 12.949-12.949h80.838c12.97 0 25.35 6.172 33.13 16.52 6.7 8.913 16.17 22.307 23.27 35.503 4.06 7.568 3.86 16.48-.54 23.85-4.39 7.35-12.13 11.732-20.69 11.732l-.01.01Zm-103.049-25.898h100.049c-6.15-10.95-14.03-22.03-19.73-29.627-2.91-3.868-7.56-6.182-12.43-6.182h-67.889v35.819-.01ZM869.85 624.49H463.081c-7.152 0-12.949-5.797-12.949-12.949s5.797-12.949 12.949-12.949h210.22v-35.819h-210.22c-7.152 0-12.949-5.797-12.949-12.949s5.797-12.949 12.949-12.949H869.85c15.53 0 28.153 12.632 28.153 28.153v31.299c0 15.531-12.633 28.153-28.153 28.153v.01Zm-170.661-25.898H869.84a2.254 2.254 0 0 0 2.255-2.255v-31.299a2.26 2.26 0 0 0-2.255-2.255H699.189v35.819-.01Zm228.253-173.519c-4.304 0-8.508-2.137-10.971-6.044L799.95 234.063c-1.85-2.938-5.401-3.165-6.449-3.165-1.049 0-4.6.227-6.45 3.165l-81.849 129.925c-.098.168-.197.327-.306.495l-11.821 18.775 11.93-5.243a12.941 12.941 0 0 1 14.591 2.928l10.129 10.644 18.113-26.6a12.972 12.972 0 0 1 10.377-5.658 12.94 12.94 0 0 1 10.644 5.124l9.022 11.91 17.064-40.113a12.955 12.955 0 0 1 11.92-7.874h.079a12.95 12.95 0 0 1 11.9 8.023l20.685 50.262c4.541-3.868 11.317-4.184 16.253-.415 5.678 4.342 6.766 12.474 2.424 18.152l-11.92 15.58a12.973 12.973 0 0 1-11.98 4.976 12.92 12.92 0 0 1-10.278-7.914l-17.351-42.18-13.701 32.199a12.968 12.968 0 0 1-10.327 7.785 12.953 12.953 0 0 1-11.91-5.035l-11.624-15.363-16.995 24.949a12.95 12.95 0 0 1-20.081 1.642l-14.918-15.67-42.309 18.598a12.931 12.931 0 0 1-15.016-3.403c-3.71-4.313-4.184-10.545-1.148-15.353l30.073-47.73c-7.498-11.386-22.149-33.643-28.895-44.1l-66.545 105.64c-3.809 6.054-11.812 7.864-17.856 4.055-6.054-3.808-7.864-11.811-4.056-17.855l67.426-107.024c4.461-7.073 12.256-11.327 20.872-11.366h.119c8.626 0 16.461 4.204 21.001 11.267 4.719 7.34 15.036 23.059 23.109 35.325l71.293-113.167C771.203 210.698 781.808 205 793.55 205s22.347 5.708 28.361 15.254l116.521 184.965c3.808 6.054 1.998 14.047-4.056 17.855a12.85 12.85 0 0 1-6.885 1.999h-.049Z"/>
    <path fill="#04050A" d="M1224.49 898.673c-7.16 0-12.95-5.796-12.95-12.949V725.431h-70.81c-5.11 0-9.74-2.998-11.82-7.657a12.942 12.942 0 0 1 2.15-13.918l64.52-72.322h-54.85c-5.14 0-9.79-3.027-11.85-7.726a12.95 12.95 0 0 1 2.29-13.958l60.25-65.843h-43.64a12.96 12.96 0 0 1-11.69-7.39 12.944 12.944 0 0 1 1.65-13.73l55.85-68.662h-20.24c-4.57 0-8.8-2.414-11.14-6.341a12.97 12.97 0 0 1-.22-12.82l47.47-86.854c2.26-4.155 6.63-6.737 11.37-6.737 4.73 0 9.09 2.582 11.36 6.737l47.47 86.854a12.945 12.945 0 0 1-11.36 19.161h-20.24l55.85 68.662c3.16 3.878 3.8 9.22 1.65 13.73a12.938 12.938 0 0 1-11.69 7.39h-43.63l60.24 65.843a12.95 12.95 0 0 1 2.29 13.958 12.926 12.926 0 0 1-11.85 7.726h-47.52l64.52 72.322a12.961 12.961 0 0 1 2.15 13.918 12.938 12.938 0 0 1-11.82 7.657h-70.81v160.293c0 7.153-5.79 12.949-12.94 12.949h-.01Zm0-199.14h54.85l-54.85-61.49-54.86 61.49h54.86Zm0-93.887h47.02l-50.68-55.397-50.69 55.397h54.36-.01Zm-3.67-87.537h45.81l-45.81-56.307-45.82 56.307h45.82Zm0-89.782h25.63l-25.63-46.899-25.64 46.899h25.64Z"/>
  </g>
  <defs>
    <clipPath id="a">
      <path fill="#fff" d="M0 0h1600v1600H0z"/>
    </clipPath>
  </defs>
</svg>
