<svg xmlns="http://www.w3.org/2000/svg" width="1600" height="1600" fill="none" viewBox="0 0 1600 1600">
  <path fill="#04050A" d="M787.24 169.962c88.448 0 160.14 71.701 160.14 160.139 0 40.338-14.948 77.168-39.568 105.325l292.148 676.624c74.05 14.08 130.05 79.12 130.05 157.28 0 88.45-71.7 160.14-160.14 160.14-88.44 0-160.14-71.7-160.14-160.14 0-31.78 9.29-61.36 25.25-86.26l-43.516-93.65-71.202-171.817-128.476-295.659-120.741 295.659-68.115 171.817-41.067 90.34c17.286 25.57 27.378 56.39 27.378 89.58 0 88.45-71.702 160.14-160.14 160.14-88.438 0-160.139-71.7-160.139-160.14 0-76.41 53.526-140.28 125.128-156.26l275.885-673.957c-26.588-28.587-42.875-66.886-42.875-109.012 0-88.448 71.702-160.139 160.14-160.139m0-46.972c-27.937 0-55.065 5.486-80.624 16.297-24.67 10.431-46.812 25.359-65.817 44.364-19.004 19.004-33.932 41.146-44.364 65.816-10.811 25.559-16.296 52.687-16.296 80.634 0 41.986 12.609 82.443 35.97 116.626L359.168 1074.42c-35.381 12.74-67.065 35.09-90.956 64.53-14.648 18.05-26.058 38.24-33.932 60.02-8.143 22.55-12.28 46.23-12.28 70.37 0 27.93 5.486 55.06 16.297 80.63 10.431 24.67 25.359 46.81 44.364 65.82 19.004 19 41.146 33.93 65.816 44.36 25.559 10.81 52.687 16.3 80.634 16.3 27.948 0 55.066-5.49 80.635-16.3 24.67-10.43 46.812-25.36 65.816-44.36 19.005-19.01 33.933-41.15 44.364-65.82 10.811-25.56 16.297-52.69 16.297-80.63 0-32.27-7.404-63.66-21.583-92.15l31.055-68.32c.32-.7.62-1.41.909-2.13l68.015-171.581 78.526-192.273 83.902 193.072 71.052 171.462c.25.61.52 1.21.799 1.81l33.513 72.12c-12.899 27.42-19.624 57.39-19.624 87.99 0 27.93 5.486 55.06 16.297 80.63 10.431 24.67 25.356 46.81 44.366 65.82 19 19 41.14 33.93 65.81 44.36 25.56 10.81 52.69 16.3 80.63 16.3 27.94 0 55.06-5.49 80.63-16.3 24.67-10.43 46.81-25.36 65.82-44.36 19-19.01 33.93-41.15 44.36-65.82 10.81-25.56 16.3-52.69 16.3-80.63 0-90.52-58.77-169.59-142.97-196.94L961.708 441.701a206.889 206.889 0 0 0 32.663-111.59c0-27.937-5.485-55.065-16.296-80.634-10.432-24.67-25.36-46.812-44.364-65.816-19.005-19.005-41.147-33.933-65.817-44.364C842.335 128.486 815.207 123 787.26 123h-.02Z"/>
</svg>
