<svg xmlns="http://www.w3.org/2000/svg" width="1600" height="1600" fill="none" viewBox="0 0 1600 1600">
  <path fill="#04050A" d="M454.277 1337.41c1.14 1.05 1.71 2.3 1.71 3.78 0 .8-.18 1.63-.55 2.49l-22.775 53.3c-.55 1.17-1.32 2.06-2.309 2.67-.98.62-2.03.92-3.14.92a5.803 5.803 0 0 1-2.909-.97c-.89-.58-1.58-1.43-2.079-2.54l-22.775-53.49c-.31-.61-.46-1.38-.46-2.31 0-1.66.61-3 1.849-4.01 1.23-1.01 2.49-1.52 3.779-1.52 1.05 0 2.03.31 2.95.92.92.62 1.629 1.51 2.119 2.68l18.536 43.62 16.966-43.62c.49-1.11 1.2-1.97 2.12-2.58.92-.61 1.91-.92 2.949-.92 1.54 0 2.87.52 4.009 1.57l.01.01Zm59.347 58.19c0 1.6-.52 2.91-1.57 3.92-1.049 1.01-2.249 1.52-3.599 1.52-1.11 0-2.109-.34-2.999-1.01-.89-.68-1.58-1.6-2.08-2.77l-4.799-11.16h-27.483l-4.799 11.25c-.43 1.17-1.09 2.07-1.98 2.72-.89.65-1.859.97-2.909.97-1.6 0-2.81-.43-3.639-1.29-.83-.86-1.25-2.03-1.25-3.51 0-.55.09-1.14.28-1.75l22.965-55.15c.489-1.23 1.229-2.18 2.209-2.86.98-.68 2.09-.95 3.319-.83 1.11 0 2.14.32 3.09.97.949.65 1.639 1.55 2.079 2.72l22.685 54.04c.31.8.46 1.54.46 2.21l.02.01Zm-38.001-20.1h18.445l-9.317-21.58-9.128 21.58Zm98.397-38c.92.98 1.38 2.21 1.38 3.69v53.77c0 1.6-.54 2.94-1.609 4.01-1.08 1.08-2.41 1.61-4.01 1.61a7.91 7.91 0 0 1-2.539-.42c-.83-.28-1.43-.66-1.8-1.15l-33.842-42.97v39.38c0 1.48-.48 2.71-1.43 3.69-.949.98-2.199 1.48-3.739 1.48s-2.669-.49-3.599-1.48c-.92-.98-1.38-2.21-1.38-3.69v-53.76c0-1.6.54-2.94 1.61-4.01 1.08-1.08 2.409-1.61 4.009-1.61.92 0 1.83.19 2.719.55.89.37 1.55.86 1.98 1.48l33.562 42.79v-39.65c0-1.48.48-2.7 1.43-3.69.95-.98 2.17-1.48 3.639-1.48 1.47 0 2.67.49 3.599 1.48l.02-.02Zm49.979 62.34c-3.439-1.11-6.668-2.98-9.678-5.63-1.659-1.48-2.489-3.1-2.489-4.89 0-1.41.52-2.66 1.57-3.74 1.039-1.08 2.309-1.61 3.779-1.61 1.17 0 2.209.37 3.139 1.11 2.46 2.03 4.859 3.51 7.188 4.43 2.34.92 5.099 1.38 8.299 1.38 3.439 0 6.408-.77 8.898-2.31 2.489-1.54 3.739-3.44 3.739-5.72 0-2.77-1.23-4.92-3.689-6.49-2.46-1.57-6.359-2.75-11.708-3.55-13.467-1.97-20.195-8.24-20.195-18.82 0-3.87 1.01-7.24 3.039-10.1 2.03-2.86 4.799-5.04 8.298-6.55 3.509-1.51 7.409-2.26 11.708-2.26 3.869 0 7.518.58 10.927 1.75s6.259 2.71 8.528 4.61c1.78 1.42 2.67 3.04 2.67 4.89 0 1.42-.52 2.66-1.57 3.74s-2.279 1.61-3.689 1.61c-.92 0-1.75-.28-2.49-.83-1.599-1.29-3.829-2.47-6.688-3.55-2.859-1.08-5.429-1.61-7.698-1.61-3.87 0-6.869.72-8.988 2.17-2.12 1.45-3.18 3.34-3.18 5.67 0 2.64 1.09 4.64 3.27 6 2.179 1.35 5.608 2.46 10.277 3.32 5.289.92 9.518 2.11 12.677 3.55 3.17 1.45 5.549 3.41 7.149 5.9 1.599 2.49 2.399 5.8 2.399 9.91 0 3.87-1.089 7.27-3.269 10.19-2.179 2.92-5.089 5.17-8.718 6.73-3.629 1.57-7.528 2.35-11.707 2.35-4.429 0-8.359-.55-11.808-1.66l.01.01Zm97.018-62.25c1.05 1.05 1.57 2.4 1.57 4.06v53.3c0 1.6-.55 2.94-1.659 4.01-1.11 1.08-2.52 1.61-4.24 1.61-1.539 0-2.859-.54-3.969-1.61-1.109-1.08-1.659-2.41-1.659-4.01v-21.48h-29.414v21.48c0 1.6-.58 2.94-1.749 4.01-1.17 1.08-2.52 1.61-4.059 1.61-1.66 0-3.03-.54-4.099-1.61-1.08-1.08-1.61-2.41-1.61-4.01v-53.3c0-1.6.55-2.94 1.66-4.01 1.109-1.08 2.519-1.61 4.239-1.61 1.539 0 2.859.54 3.969 1.61 1.109 1.08 1.659 2.41 1.659 4.01v21.21h29.414v-21.21c0-1.6.58-2.94 1.749-4.01 1.17-1.08 2.52-1.61 4.059-1.61 1.72 0 3.1.52 4.149 1.57l-.01-.01Zm66.486 58.01c0 1.6-.52 2.91-1.57 3.92-1.05 1.01-2.25 1.52-3.599 1.52-1.11 0-2.11-.34-3-1.01-.889-.68-1.579-1.6-2.079-2.77l-4.799-11.16h-27.484l-4.799 11.25c-.43 1.17-1.09 2.07-1.979 2.72-.89.65-1.86.97-2.91.97-1.599 0-2.809-.43-3.639-1.29-.83-.86-1.25-2.03-1.25-3.51 0-.55.09-1.14.28-1.75l22.965-55.15c.49-1.23 1.23-2.18 2.21-2.86.979-.68 2.089-.95 3.319-.83 1.11 0 2.139.32 3.089.97.95.65 1.64 1.55 2.08 2.72l22.685 54.04c.31.8.46 1.54.46 2.21l.02.01Zm-37.992-20.1h18.446l-9.318-21.58-9.128 21.58Zm98.348 17.98c.46.8.69 1.63.69 2.49 0 1.11-.37 2.12-1.11 3.04-.92 1.11-2.339 1.66-4.239 1.66-1.48 0-2.829-.34-4.059-1.01-4.429-2.52-6.639-7.65-6.639-15.4 0-2.21-.719-3.97-2.169-5.25-1.44-1.29-3.519-1.94-6.229-1.94h-17.246v17.89c0 1.66-.45 3.01-1.339 4.06-.89 1.05-2.08 1.57-3.55 1.57-1.789 0-3.339-.54-4.659-1.61-1.319-1.08-1.979-2.41-1.979-4.01v-53.3c0-1.6.54-2.94 1.61-4.01 1.079-1.08 2.409-1.61 4.009-1.61h26.564c3.199 0 6.208.86 9.038 2.58 2.829 1.72 5.088 4.09 6.778 7.1 1.69 3.01 2.539 6.4 2.539 10.15 0 3.08-.829 6.07-2.489 8.99s-3.809 5.24-6.458 6.96c3.869 2.71 5.998 6.33 6.358 10.87.19.98.28 1.94.28 2.86.24 1.91.49 3.27.74 4.1.25.83.8 1.46 1.659 1.89.8.49 1.43 1.14 1.89 1.94l.01-.01ZM830.293 1366c1.05-1.05 1.91-2.44 2.579-4.2.67-1.75 1.01-3.64 1.01-5.67 0-1.72-.34-3.3-1.01-4.75-.679-1.44-1.539-2.6-2.579-3.46-1.05-.86-2.119-1.29-3.229-1.29h-20.196v20.94h20.196c1.11 0 2.179-.52 3.229-1.57Zm38.171 32.96c-1.169 1.08-2.519 1.61-4.059 1.61-1.659 0-3.029-.54-4.099-1.61-1.079-1.08-1.609-2.41-1.609-4.01v-53.3c0-1.6.549-2.94 1.659-4.01 1.11-1.08 2.52-1.61 4.239-1.61 1.54 0 2.86.54 3.969 1.61 1.11 1.08 1.66 2.41 1.66 4.01v53.3c0 1.6-.58 2.94-1.75 4.01h-.01Zm68.155-61.46c.92.98 1.38 2.21 1.38 3.69v53.77c0 1.6-.54 2.94-1.61 4.01-1.08 1.08-2.409 1.61-4.009 1.61a7.9 7.9 0 0 1-2.539-.42c-.83-.28-1.43-.66-1.8-1.15l-33.842-42.97v39.38c0 1.48-.48 2.71-1.43 3.69s-2.2 1.48-3.739 1.48c-1.54 0-2.68-.49-3.599-1.48-.92-.98-1.38-2.21-1.38-3.69v-53.76c0-1.6.54-2.94 1.61-4.01 1.069-1.07 2.409-1.61 4.009-1.61.919 0 1.829.19 2.719.55.89.37 1.55.86 1.98 1.48l33.562 42.79v-39.65c0-1.48.48-2.7 1.43-3.69.95-.98 2.169-1.48 3.639-1.48 1.47 0 2.669.49 3.599 1.48l.02-.02Zm66.761 29.84c1.05 1.08 1.57 2.41 1.57 4.01v19.54c0 2.15-.95 3.81-2.86 4.98-6.024 3.75-12.633 5.63-19.821 5.63-6.089 0-11.707-1.49-16.876-4.47-5.159-2.98-9.258-7.01-12.268-12.08-3.009-5.07-4.519-10.61-4.519-16.64 0-6.03 1.51-11.58 4.519-16.65 3.01-5.07 7.099-9.1 12.268-12.08 5.169-2.98 10.787-4.47 16.876-4.47s11.367 1.23 15.856 3.69c.92.49 1.61 1.14 2.075 1.94.46.8.69 1.66.69 2.58 0 1.54-.51 2.88-1.515 4.01-1.01 1.14-2.259 1.71-3.739 1.71-.92 0-1.94-.25-3.039-.74-3.32-1.41-6.759-2.12-10.328-2.12-3.939 0-7.558 1-10.878 3-3.319 2-5.948 4.69-7.888 8.07-1.939 3.38-2.909 7.07-2.909 11.07s.97 7.69 2.909 11.07c1.94 3.37 4.569 6.06 7.888 8.06 3.32 2 6.949 3 10.878 3 1.72 0 3.569-.15 5.529-.46 1.969-.31 3.689-.71 5.168-1.2v-11.98h-8.668c-1.599 0-2.939-.52-4.009-1.57-1.079-1.04-1.609-2.37-1.609-3.97s.54-2.92 1.609-3.97c1.08-1.04 2.41-1.57 4.009-1.57h15.127c1.595 0 2.915.54 3.965 1.61h-.01Zm89.54 28.26c0 1.6-.52 2.91-1.57 3.92-1.05 1.01-2.24 1.52-3.59 1.52-1.11 0-2.11-.34-3-1.01-.89-.68-1.58-1.6-2.07-2.77l-4.8-11.16h-27.49l-4.8 11.25c-.43 1.17-1.09 2.07-1.97 2.72-.89.65-1.86.97-2.91.97-1.6 0-2.81-.43-3.64-1.29-.83-.86-1.25-2.03-1.25-3.51 0-.55.09-1.14.28-1.75l22.96-55.15c.49-1.23 1.23-2.18 2.21-2.86.98-.68 2.09-.95 3.32-.83 1.11 0 2.14.32 3.09.97.95.65 1.65 1.55 2.08 2.72l22.68 54.04c.31.8.46 1.54.46 2.21l.01.01Zm-37.99-20.1h18.45l-9.32-21.58-9.13 21.58Zm81.42-36.66c2.83 1.88 5.1 4.4 6.83 7.56 1.72 3.17 2.58 6.63 2.58 10.38 0 3.75-.86 7.13-2.58 10.33-1.72 3.2-4 5.73-6.83 7.61s-5.8 2.81-8.94 2.81h-16.05v17.42c0 1.66-.49 3.01-1.48 4.06-.98 1.05-2.28 1.57-3.87 1.57-1.59 0-2.8-.54-3.78-1.61-.98-1.08-1.48-2.41-1.48-4.01v-53.3c0-1.6.54-2.94 1.61-4.01 1.07-1.07 2.41-1.61 4.01-1.61h21.03c3.14 0 6.11.94 8.94 2.81l.01-.01Zm-5.47 26.7c1.14-.98 2.06-2.26 2.76-3.83.71-1.57 1.06-3.21 1.06-4.93 0-1.72-.36-3.37-1.06-4.93-.7-1.57-1.62-2.83-2.76-3.78-1.14-.95-2.29-1.43-3.46-1.43h-16.05v20.38h16.05c1.17 0 2.32-.49 3.46-1.48Zm61.08-26.7c2.83 1.88 5.1 4.4 6.83 7.56 1.72 3.17 2.58 6.63 2.58 10.38 0 3.75-.86 7.13-2.58 10.33-1.72 3.2-4 5.73-6.83 7.61s-5.81 2.81-8.95 2.81h-16.04v17.42c0 1.66-.49 3.01-1.48 4.06-.98 1.05-2.28 1.57-3.87 1.57-1.59 0-2.8-.54-3.78-1.61-.98-1.08-1.48-2.41-1.48-4.01v-53.3c0-1.6.54-2.94 1.61-4.01 1.07-1.07 2.41-1.61 4.01-1.61H1183c3.14 0 6.12.94 8.95 2.81l.01-.01Zm-5.48 26.7c1.14-.98 2.06-2.26 2.77-3.83.71-1.57 1.06-3.21 1.06-4.93 0-1.72-.36-3.37-1.06-4.93-.71-1.57-1.63-2.83-2.77-3.78-1.14-.95-2.29-1.43-3.46-1.43h-16.04v20.38h16.04c1.17 0 2.32-.49 3.46-1.48ZM125.481 1174.88l40.891-125.04c4.729-14.53 9.458-20.62 19.936-20.62 12.167 0 18.925 7.1 18.925 20.62 0 5.41-1.689 9.8-2.369 11.49l-53.738 163.56c-6.759 20.28-11.487 29.74-23.315 29.74-12.507 0-18.586-13.51-23.654-28.38l-56.438-161.53c-2.03-5.75-3.719-10.82-3.719-18.25 0-9.13 8.788-17.24 17.576-17.24 13.517 0 15.887 6.76 22.305 24.68l43.59 120.98.01-.01Zm422.765-7.43v-110.5c0-17.58 3.72-27.72 18.586-27.72 15.887 0 19.266 10.48 19.266 27.72v172.35c0 16.55-5.749 25.34-15.547 25.34-13.856 0-17.236-6.76-24.334-17.23l-81.442-121.33v110.17c0 18.59-5.749 28.38-17.576 28.38-13.177 0-20.275-9.12-20.275-25.34v-174.38c0-16.56 7.438-25.69 18.925-25.69 8.449 0 13.517 5.41 19.266 13.86l83.131 124.36v.01Zm141.929-7.44c-41.901 0-65.896-26.36-65.896-64.88 0-33.12 31.763-66.24 78.743-66.24 46.979 0 79.412 27.72 79.412 44.95 0 10.82-7.098 18.25-17.236 18.25-2.37 0-4.059-.34-6.079-1.69-19.266-12.17-36.162-24.33-56.097-24.33-19.936 0-39.541 10.81-39.541 28.05 0 19.93 14.526 28.38 26.694 28.38h21.295c19.935 0 35.822 1.35 51.368 13.86 14.197 11.49 22.645 29.4 22.645 49.68 0 41.23-32.782 69.27-73.333 69.27s-84.481-21.96-84.481-46.98c0-11.14 10.477-17.9 15.206-17.9 3.04 0 9.798 3.38 15.547 7.44 12.167 8.44 22.305 18.92 53.728 18.92 14.196 0 35.482-9.13 35.482-29.06 0-19.94-11.828-27.72-35.482-27.72h-21.975Zm207.493-131.46c43.93 0 77.723 30.76 77.723 50.35 0 9.8-7.099 16.9-16.897 16.9-6.418 0-10.817-5.07-15.206-9.46-13.177-13.52-27.374-19.26-46.3-19.26-25.684 0-42.58 19.59-42.58 56.77 0 33.45 1.35 56.1 5.409 66.58 6.078 16.55 19.605 26.36 39.881 26.36 24.334 0 37.511-14.2 45.959-20.61 4.059-3.04 8.788-5.75 14.197-5.75 9.458 0 16.556 8.79 16.556 17.9 0 21.63-41.9 46.98-77.722 46.98-35.822 0-65.895-20.95-76.033-50.02-5.409-15.88-6.079-43.93-6.079-84.15 0-33.45 5.409-54.06 26.694-72.65 15.887-13.86 32.783-19.94 54.408-19.94h-.01Zm352.472 133.49v65.23c0 17.58-5.07 27.37-19.27 27.37-15.54 0-18.58-11.48-18.58-27.37v-173.03c0-16.9 6.08-25.35 23.99-25.35h62.52c48.33 0 74.34 29.75 74.34 67.26 0 39.88-26.69 65.89-70.96 65.89h-52.05.01Zm0-94.29v55.42h51.03c23.31 0 32.78-9.8 32.78-29.4 0-17.58-11.49-26.03-34.13-26.03h-49.68v.01Zm185.53 148.02h92.26c18.92 0 27.37 8.45 27.37 19.61 0 14.52-10.14 19.26-27.37 19.26h-109.16c-14.87 0-20.95-8.45-20.95-26.36v-174.04c0-16.23 5.74-24.68 22.3-24.68h114.57c15.54 0 23.31 8.11 23.31 19.6 0 11.49-9.13 19.26-19.94 19.26h-102.39v55.09h63.53c16.56 0 26.03 5.07 26.03 19.61 0 13.18-8.79 19.26-26.03 19.26h-63.53v53.4-.01Zm-1072.102-18.1-52.439-121.46c4.419-5.06 7.099-11.66 7.099-18.9 0-15.88-12.867-28.75-28.744-28.75-15.876 0-28.743 12.87-28.743 28.75a28.59 28.59 0 0 0 7.698 19.56l-49.519 120.98c-12.847 2.87-22.465 14.33-22.465 28.04 0 15.88 12.867 28.74 28.744 28.74 15.876 0 28.743-12.86 28.743-28.74 0-5.96-1.809-11.49-4.919-16.08l7.369-16.21 12.227-30.85 21.675-53.06 23.065 53.06 12.777 30.85 7.808 16.8a28.563 28.563 0 0 0-4.529 15.49c0 15.88 12.867 28.74 28.744 28.74 15.876 0 28.743-12.86 28.743-28.74 0-14.03-10.047-25.7-23.344-28.23l.01.01Zm801.742 0-52.44-121.46c4.42-5.06 7.1-11.66 7.1-18.9 0-15.88-12.87-28.75-28.75-28.75-15.87 0-28.74 12.87-28.74 28.75 0 7.56 2.92 14.43 7.7 19.56l-49.52 120.98c-12.85 2.87-22.465 14.33-22.465 28.04 0 15.88 12.865 28.74 28.745 28.74s28.74-12.86 28.74-28.74c0-5.96-1.81-11.49-4.92-16.08l7.37-16.21 12.23-30.85 21.67-53.06 23.07 53.06 12.78 30.85 7.8 16.8a28.633 28.633 0 0 0-4.52 15.49c0 15.88 12.86 28.74 28.74 28.74 15.88 0 28.74-12.86 28.74-28.74 0-14.03-10.05-25.7-23.34-28.23l.01.01Zm206.04-298.597h-271.32c-7.23 0-13.08-5.859-13.08-13.087 0-7.229 5.85-13.087 13.08-13.087h271.32c7.23 0 13.09 5.858 13.09 13.087 0 7.228-5.86 13.087-13.09 13.087Zm-932.819 0H229.927c-7.228 0-13.087-5.859-13.087-13.087 0-7.229 5.859-13.087 13.087-13.087h208.604c7.228 0 13.087 5.858 13.087 13.087 0 7.228-5.859 13.087-13.087 13.087Zm536.67 35.132c-46.3 0-83.971-37.672-83.971-83.971 0-46.3 37.671-83.971 83.971-83.971 46.299 0 83.969 37.671 83.969 83.971 0 46.299-37.67 83.971-83.969 83.971Zm0-141.768c-31.873 0-57.797 25.924-57.797 57.797 0 31.873 25.924 57.797 57.797 57.797 31.869 0 57.799-25.924 57.799-57.797 0-31.873-25.93-57.797-57.799-57.797ZM563.043 934.205c-46.299 0-83.971-37.672-83.971-83.971 0-46.3 37.672-83.971 83.971-83.971 46.3 0 83.971 37.671 83.971 83.971 0 46.299-37.671 83.971-83.971 83.971Zm0-141.768c-31.873 0-57.797 25.924-57.797 57.797 0 31.873 25.924 57.797 57.797 57.797 31.873 0 57.797-25.924 57.797-57.797 0-31.873-25.924-57.797-57.797-57.797Zm412.158 83.211c-14.017 0-25.415-11.397-25.415-25.414 0-14.017 11.398-25.414 25.415-25.414s25.419 11.397 25.419 25.414c0 14.017-11.402 25.414-25.419 25.414Zm0-26.174a.76.76 0 1 0 0 1.52.76.76 0 0 0 0-1.52Zm-412.158 26.174c-14.017 0-25.414-11.397-25.414-25.414 0-14.017 11.397-25.414 25.414-25.414 14.017 0 25.415 11.397 25.415 25.414 0 14.017-11.398 25.414-25.415 25.414Zm0-26.174a.76.76 0 1 0 0 1.52.76.76 0 0 0 0-1.52Zm588.757 1.52h-69.81c-7.23 0-13.09-5.859-13.09-13.087 0-7.229 5.86-13.087 13.09-13.087h69.81c6.8 0 12.33-5.529 12.33-12.328 0-6.798-5.53-12.327-12.33-12.327h-7.67c-7.23 0-13.08-5.859-13.08-13.087v-66.855c0-45.52-8.7-89.96-25.86-132.1l-19.63-37.262c-8.22-15.607-18.53-29.683-30.77-42.071H444.25c-10.308 11.788-18.616 25.275-24.635 40.091-14.086 34.693-21.225 71.274-21.225 108.726v130.471c0 7.228-5.859 13.087-13.087 13.087h-3.809c-4.499 0-8.158 3.659-8.158 8.158a8.142 8.142 0 0 0 2.879 6.219 38.961 38.961 0 0 0 25.214 9.268h47.04c7.228 0 13.087 5.858 13.087 13.087 0 7.228-5.859 13.087-13.087 13.087h-47.04a65.183 65.183 0 0 1-42.17-15.507 34.28 34.28 0 0 1-12.097-26.164c0-15.716 10.617-29.004 25.064-33.063V657.597c0-40.841 7.788-80.732 23.145-118.563 13.417-33.053 36.492-60.507 66.735-79.413a134.397 134.397 0 0 1 71.304-20.445h423.585c18.676 0 37.002 3.349 54.465 9.948a161.116 161.116 0 0 1 42.16 23.684c22.98 17.916 41.51 40.071 55.1 65.856l19.94 37.821c.2.37.38.76.54 1.15 18.6 45.48 28.04 93.459 28.04 142.598v54.148c18.68 2.639 33.08 18.736 33.08 38.121 0 21.225-17.27 38.502-38.5 38.502l-.02-.01ZM474.723 482.626h546.637a135.09 135.09 0 0 0-19.16-9.008 127.488 127.488 0 0 0-45.215-8.258H533.4a108.2 108.2 0 0 0-57.427 16.476c-.42.26-.84.53-1.25.79Zm389.743 368.368H672.999c-7.229 0-13.088-5.859-13.088-13.087 0-7.229 5.859-13.087 13.088-13.087h191.467c7.228 0 13.087 5.858 13.087 13.087 0 7.228-5.859 13.087-13.087 13.087ZM650.944 745.037H459.476c-7.228 0-13.087-5.858-13.087-13.087 0-7.228 5.859-13.087 13.087-13.087h191.468c7.228 0 13.087 5.859 13.087 13.087 0 7.229-5.859 13.087-13.087 13.087Zm290.994-51.788H934.3c-7.228 0-13.087-5.859-13.087-13.087s5.859-13.087 13.087-13.087h7.638c7.229 0 13.087 5.859 13.087 13.087s-5.858 13.087-13.087 13.087Zm113.412-71.284H938.119c-7.228 0-13.087-5.859-13.087-13.087v-62.376c0-7.228 5.859-13.087 13.087-13.087h81.701c13.11 0 25.61 6.238 33.48 16.696 6.77 9.008 16.35 22.545 23.52 35.882 4.11 7.648 3.91 16.656-.54 24.105-4.44 7.428-12.26 11.857-20.92 11.857l-.01.01Zm-104.144-26.174h101.114c-6.22-11.068-14.17-22.265-19.94-29.943-2.94-3.91-7.64-6.249-12.56-6.249h-68.614v36.202-.01Zm-80.612 26.174H459.486c-7.228 0-13.087-5.859-13.087-13.087s5.859-13.087 13.087-13.087h212.463v-36.202H459.486c-7.228 0-13.087-5.859-13.087-13.087s5.859-13.087 13.087-13.087h411.108c15.697 0 28.454 12.767 28.454 28.453v31.633c0 15.697-12.767 28.454-28.454 28.454v.01Zm-172.481-26.174h172.471c1.26 0 2.28-1.02 2.28-2.28v-31.633a2.285 2.285 0 0 0-2.28-2.279H698.113v36.202-.01ZM928.801 420.42c-4.349 0-8.598-2.159-11.087-6.108L799.95 227.373c-1.87-2.969-5.459-3.199-6.519-3.199-1.059 0-4.648.23-6.518 3.199l-82.721 131.311c-.1.17-.201.33-.31.5l-11.948 18.976 12.057-5.299a13.077 13.077 0 0 1 14.747 2.959l10.238 10.758 18.306-26.884a13.11 13.11 0 0 1 10.487-5.719c4.22-.1 8.219 1.82 10.758 5.179l9.118 12.037 17.246-40.541a13.094 13.094 0 0 1 12.047-7.958h.08a13.09 13.09 0 0 1 12.028 8.108l20.905 50.799c4.589-3.909 11.437-4.229 16.426-.42 5.739 4.389 6.839 12.607 2.45 18.346l-12.047 15.746a13.11 13.11 0 0 1-12.108 5.029 13.056 13.056 0 0 1-10.387-7.998l-17.537-42.631-13.846 32.543a13.107 13.107 0 0 1-10.438 7.868 13.092 13.092 0 0 1-12.037-5.088l-11.748-15.527-17.176 25.214a13.081 13.081 0 0 1-9.748 5.679 13.09 13.09 0 0 1-10.547-4.019l-15.077-15.836-42.76 18.795a13.07 13.07 0 0 1-15.177-3.439c-3.749-4.359-4.229-10.657-1.16-15.516l30.393-48.24c-7.578-11.507-22.385-34.002-29.203-44.57l-67.255 106.766c-3.849 6.119-11.937 7.949-18.046 4.1-6.118-3.85-7.948-11.938-4.099-18.046l68.145-108.166c4.509-7.149 12.387-11.448 21.095-11.488h.12c8.718 0 16.636 4.25 21.225 11.388 4.769 7.418 15.197 23.305 23.355 35.702l72.054-114.374c6.079-9.658 16.796-15.417 28.663-15.417 11.868 0 22.585 5.769 28.664 15.417l117.764 186.938c3.849 6.118 2.019 14.196-4.1 18.046a12.991 12.991 0 0 1-6.958 2.019h-.05Z"/>
  <path fill="#04050A" d="M1229.01 899.073c-7.22 0-13.08-5.859-13.08-13.087V723.982h-71.57c-5.16 0-9.84-3.029-11.94-7.738a13.096 13.096 0 0 1 2.17-14.067l65.21-73.094h-55.44c-5.19 0-9.89-3.059-11.97-7.808a13.105 13.105 0 0 1 2.31-14.107l60.89-66.545h-44.1c-5.05 0-9.65-2.909-11.82-7.468a13.076 13.076 0 0 1 1.67-13.877l56.45-69.394h-20.45c-4.62 0-8.9-2.44-11.26-6.409a13.104 13.104 0 0 1-.23-12.957l47.98-87.78a13.08 13.08 0 0 1 11.48-6.809c4.79 0 9.19 2.61 11.49 6.809l47.98 87.78a13.08 13.08 0 0 1-.23 12.957 13.086 13.086 0 0 1-11.26 6.409h-20.45l56.45 69.394a13.117 13.117 0 0 1 1.67 13.877 13.095 13.095 0 0 1-11.82 7.468h-44.1l60.88 66.545a13.088 13.088 0 0 1 2.32 14.107 13.079 13.079 0 0 1-11.97 7.808h-48.03l65.2 73.094a13.099 13.099 0 0 1 2.18 14.067 13.094 13.094 0 0 1-11.95 7.738h-71.56v162.004c0 7.228-5.86 13.087-13.09 13.087h-.01Zm0-201.265h55.44l-55.44-62.146-55.43 62.146h55.43Zm0-94.889h47.53l-51.23-55.987-51.22 55.987h54.93-.01Zm-3.71-88.47h46.3l-46.3-56.907-46.3 56.907h46.3Zm0-90.74h25.91l-25.91-47.399-25.9 47.399h25.9Z"/>
</svg>
